<?xml version="1.0" standalone="no"?>
<!DOCTYPE svg PUBLIC "-//W3C//DTD SVG 20010904//EN"
 "http://www.w3.org/TR/2001/REC-SVG-20010904/DTD/svg10.dtd">
<svg version="1.0" xmlns="http://www.w3.org/2000/svg"
 width="150.000000pt" height="150.000000pt" viewBox="0 0 150.000000 150.000000"
 preserveAspectRatio="xMidYMid meet">
<metadata>
Created by potrace 1.14, written by Peter Selinger 2001-2017
</metadata>
<g transform="translate(0.000000,150.000000) scale(0.100000,-0.100000)"
fill="#000000" stroke="none">
<path d="M498 1452 c-42 -16 -102 -44 -134 -63 -62 -37 -189 -158 -233 -223
-41 -59 -90 -160 -89 -182 1 -11 -8 -46 -18 -79 -14 -46 -19 -90 -19 -190 0
-143 18 -221 76 -337 34 -68 140 -184 195 -214 22 -12 66 -38 99 -58 103 -63
195 -86 344 -86 107 0 143 4 213 24 76 23 190 78 228 111 8 7 31 20 50 28 52
21 161 145 209 236 92 177 106 383 39 557 -61 154 -85 194 -177 284 -98 97
-181 149 -296 187 -70 22 -101 26 -245 29 -161 4 -167 3 -242 -24z"/>
</g>
</svg>
