<?xml version="1.0"?>
<svg xmlns="http://www.w3.org/2000/svg" width="50" height="50" viewBox="0 0 50 50">
    <path d="M 22.53125 0 C 20.03125 0 18.03125 2 18.03125 4.5 C 18.03125 7 20.03125 9 22.53125 9 C 25.03125 9 27.03125 7 27.03125 4.5 C 27.03125 2 25.03125 0 22.53125 0 z M 37.6875 6.59375 C 37.45 6.6125 37.225 6.6875 37 6.8125 L 29.6875 10.6875 L 24.53125 10.90625 C 25.24425 11.62925 26.70675 13.12225 27.96875 14.40625 L 31.1875 14 L 36.125 11.4375 L 34.3125 20.71875 A 1.002073 1.002073 0 0 0 34.3125 20.84375 L 28.6875 18 C 28.6875 18 23.0875 12.30625 22.6875 11.90625 C 22.1875 11.40625 21.9 11 20 11 C 16.9 11 16.9125 11.1875 16.3125 12.6875 L 12.8125 23.09375 C 12.3125 24.49375 12.69375 25.90625 13.59375 26.90625 L 20.84375 34.75 L 20.84375 41.8125 C 20.84375 42.869563 21.523901 43.715279 22.46875 44 L 10.40625 44 C 11.095313 43.784094 11.65 43.25 11.875 42.5 L 15.40625 31.8125 L 12.125 28.25 C 12.012 28.124 11.9145 27.97575 11.8125 27.84375 L 7.46875 41.09375 C 7.06875 42.29275 7.76875 43.601 8.96875 44 L 3.3125 44 C 2.4135 44 0.73875 43.994 0.09375 45.5 C -0.14425 46.056 -0.13475 46.66575 0.15625 47.21875 C 0.51125 47.89275 1.24175 48.3885 2.09375 48.5625 C 3.12875 48.8155 9.8445 49.908 23.1875 50 C 23.0215 49.528 22.94725 49.007 23.03125 48.5 C 23.32625 46.727 23.871 45.247 24.5 44 L 23.84375 44 C 24.788599 43.715279 25.4375 42.869563 25.4375 41.8125 L 25.4375 34.0625 C 25.4375 33.5625 25.2375 33.05625 24.9375 32.65625 L 19.40625 26.09375 L 22.3125 17.5 L 26.6875 21.3125 L 33.59375 24.8125 A 1.0001 1.0001 0 0 0 33.40625 25.25 L 30.3125 40.4375 C 29.111949 41.143919 25.889291 43.505524 25 48.84375 C 24.951 49.13575 25.057 49.43125 25.25 49.65625 C 25.44 49.87825 25.708 50 26 50 L 33 49.90625 C 33.481 49.89925 33.918 49.5365 34 49.0625 C 34.795437 44.465375 33.049929 41.791696 32.28125 40.84375 L 35.375 25.65625 A 1.0001 1.0001 0 0 0 35.375 25.625 C 35.481703 25.653432 35.590868 25.6875 35.71875 25.6875 C 36.41775 25.6875 37.00725 25.2875 37.40625 24.6875 C 38.00725 23.5875 37.61775 22.49275 36.71875 22.09375 L 35.9375 21.6875 A 1.002073 1.002073 0 0 0 36.28125 21.09375 L 38.28125 10.90625 A 1.0001 1.0001 0 0 0 38.25 10.3125 L 38.6875 10.09375 C 39.5875 9.59375 40 8.49375 39.5 7.59375 C 39.125 6.91875 38.4 6.5375 37.6875 6.59375 z M 35.875 44 C 36.204 45.485 36.33675 47.28025 35.96875 49.40625 C 35.94675 49.53725 35.88275 49.65725 35.84375 49.78125 C 43.32375 49.43425 47.2015 48.7515 47.9375 48.5625 C 48.7915 48.3845 49.4595 47.9455 49.8125 47.3125 C 50.1115 46.7765 50.14625 46.136 49.90625 45.5 C 49.26125 43.993 47.5875 44 46.6875 44 L 35.875 44 z"/>
</svg>
