<?xml version="1.0"?>
<svg xmlns="http://www.w3.org/2000/svg" version="1" width="24" height="24" viewBox="0 0 24 24">
    <path style="text-indent:0;text-align:start;line-height:normal;text-transform:none;block-progression:tb;-inkscape-font-specification:Bitstream Vera Sans" d="M 15.5 0 C 14.119288 0 13 1.1192881 13 2.5 C 13 3.8807119 14.119288 5 15.5 5 C 16.880712 5 18 3.8807119 18 2.5 C 18 1.1192881 16.880712 0 15.5 0 z M 12.90625 4.96875 A 1.0001 1.0001 0 0 0 12.8125 5 L 12.78125 5 L 12.5 5 C 11.7 5 10.9125 5.5125 9.8125 6.3125 C 9.0125 6.9125 8.0125 7.6 6.8125 8.5 C 5.7125 9.3 5.80625 10.9875 6.90625 11.6875 L 11.90625 14.46875 L 11.03125 18.8125 A 1.0001 1.0001 0 1 0 12.96875 19.1875 L 13.96875 14.1875 A 1.0001 1.0001 0 0 0 13.6875 13.3125 A 1.0001 1.0001 0 0 0 13.625 13.21875 L 13.125 12.8125 L 10.59375 10.59375 L 13.8125 8.5 L 15.40625 9.84375 L 16.28125 10.71875 A 1.0001 1.0001 0 0 0 17 11 L 21 11 A 1.0001 1.0001 0 1 0 21 9 L 17.4375 9 L 13.71875 5.28125 A 1.0001 1.0001 0 0 0 12.90625 4.96875 z M 4.5 14 C 2 14 0 16 0 18.5 C 0 21 2 23 4.5 23 C 7 23 9 21 9 18.5 C 9 16 7 14 4.5 14 z M 19.5 14 C 17 14 15 16 15 18.5 C 15 21 17 23 19.5 23 C 22 23 24 21 24 18.5 C 24 16 22 14 19.5 14 z M 4.5 15.5 C 6.2 15.5 7.5 16.8 7.5 18.5 C 7.5 20.2 6.2 21.5 4.5 21.5 C 2.8 21.5 1.5 20.2 1.5 18.5 C 1.5 16.8 2.8 15.5 4.5 15.5 z M 19.5 15.5 C 21.2 15.5 22.5 16.8 22.5 18.5 C 22.5 20.2 21.2 21.5 19.5 21.5 C 17.8 21.5 16.5 20.2 16.5 18.5 C 16.5 16.8 17.8 15.5 19.5 15.5 z" overflow="visible" enable-background="accumulate" font-family="Bitstream Vera Sans"/>
</svg>
