<?xml version="1.0"?>
<svg xmlns="http://www.w3.org/2000/svg" width="26" height="26" viewBox="0 0 26 26">
    <path d="M 18 0 C 18 0 3.8 2.0875 0 17.1875 L 11.09375 22 C 14.29375 8 18 0 18 0 z M 24 6 C 22.895431 6 22 6.8954305 22 8 C 22 9.1045695 22.895431 10 24 10 C 25.104569 10 26 9.1045695 26 8 C 26 6.8954305 25.104569 6 24 6 z M 16.96875 8.96875 A 1.0001 1.0001 0 0 0 16.78125 9 A 1.0001 1.0001 0 0 0 16.375 10.78125 L 18.875 12.78125 A 1.0001 1.0001 0 0 0 19.5 13 L 21.15625 13 L 19.6875 16.8125 C 19.657225 16.880619 19.64518 16.931082 19.625 17 L 17.5 17 A 1.0001 1.0001 0 0 0 17.40625 17 A 1.0001 1.0001 0 0 0 16.84375 17.25 L 13.34375 20.25 A 1.0001 1.0001 0 1 0 14.65625 21.75 L 17.875 19 L 20.6875 19 C 21.1875 19.1 21.6 19.1125 22 18.8125 C 22.4 18.6125 22.80625 18.2125 22.90625 17.8125 L 24.59375 13.3125 C 25.09375 12.3125 24.5875 11.29375 23.6875 11.09375 C 23.575 11.05625 23.458008 11.041797 23.34375 11.03125 C 23.320898 11.029141 23.304106 11.032338 23.28125 11.03125 A 1.0001 1.0001 0 0 0 23 11 L 19.84375 11 L 17.625 9.21875 A 1.0001 1.0001 0 0 0 16.96875 8.96875 z M 4 23.1875 C 3.1 23.8875 1.8 24.09375 1 24.09375 C 0.6 24.09375 0.3 24.1 0 24 L 0 25.8125 C 0.3 25.8125 0.6 25.90625 1 25.90625 C 2.7 25.90625 3.4 25.5 4 25 C 4.9 25.7 6.2 25.90625 7 25.90625 C 7.8 25.90625 9.1 25.7 10 25 C 10.9 25.7 12.2 25.90625 13 25.90625 C 13.8 25.90625 15.1 25.7 16 25 C 16.9 25.7 18.2 25.90625 19 25.90625 C 19.8 25.90625 21.1 25.7 22 25 C 22.9 25.7 24.2 25.90625 25 25.90625 C 25.4 25.90625 25.7 25.7875 26 25.6875 L 26 23.90625 C 25.7 24.00625 25.4 24.09375 25 24.09375 C 24.2 24.09375 22.9 23.8875 22 23.1875 C 21.1 23.8875 19.8 24.09375 19 24.09375 C 18.2 24.09375 16.9 23.8875 16 23.1875 C 15.1 23.8875 13.8 24.09375 13 24.09375 C 12.2 24.09375 10.9 23.8875 10 23.1875 C 9.1 23.8875 7.8 24.09375 7 24.09375 C 6.2 24.09375 4.9 23.8875 4 23.1875 z"/>
</svg>
