<?xml version="1.0"?>
<svg xmlns="http://www.w3.org/2000/svg" width="26" height="26" viewBox="0 0 26 26">
    <path d="M 14.5 0 C 13.119288 0 12 1.1192881 12 2.5 C 12 3.8807119 13.119288 5 14.5 5 C 15.880712 5 17 3.8807119 17 2.5 C 17 1.1192881 15.880712 0 14.5 0 z M 11.9375 6 C 11.2965 6 11.04725 6.2185 10.65625 6.4375 L 7.34375 9.25 C 7.05175 9.418 6.89525 9.67925 6.78125 10.03125 L 6.0625 14.78125 C 5.9615 15.53925 6.3595 15.8435 6.8125 15.9375 C 7.1795 16.0135 7.73475 15.8445 7.84375 15.3125 C 7.93375 14.8745 8.59375 11 8.59375 11 L 10.75 9.34375 C 10.396 10.99175 10.02625 12.79525 9.90625 13.40625 C 9.70125 14.45625 10.24525 15.253 10.65625 15.875 C 11.03325 16.445 15.88825 24.13275 16.53125 24.96875 C 17.17425 25.80475 17.75825 26.21775 18.65625 25.71875 C 19.40625 25.30175 19.292 24.333 18.875 23.625 C 18.458 22.917 13.53125 14.90625 13.53125 14.90625 L 14.375 11.34375 C 14.375 11.34375 14.955 12.166 15.25 12.625 C 15.391 12.844 15.52025 12.94325 15.90625 13.15625 C 16.35925 13.40625 18.54975 14.3885 19.21875 14.6875 C 19.81175 14.9525 20.578 15.05625 20.875 14.53125 C 21.172 14.00625 20.78875 13.3915 20.34375 13.1875 C 19.85875 12.9655 16.625 11.34375 16.625 11.34375 C 16.625 11.34375 15.464 8.92775 14.875 7.59375 C 14.321 6.33675 13.94925 6 13.15625 6 L 11.9375 6 z M 9.46875 16.40625 L 8.46875 19.90625 C 8.46875 19.90625 6.3905 22.93925 5.8125 23.78125 C 5.3795 24.41325 5.03825 25.15675 5.78125 25.71875 C 6.61425 26.34875 7.28675 25.5485 7.71875 25.0625 C 8.11475 24.6165 9.7315 22.35525 10.1875 21.78125 C 10.4905 21.39925 10.65225 21.071 10.78125 20.75 C 10.86725 20.535 11.19725 19.66775 11.40625 19.09375 L 9.46875 16.40625 z"/>
</svg>
